<mxfile host="app.diagrams.net" agent="Mozilla/5.0 (Windows NT 10.0; Win64; x64; rv:132.0) Gecko/20100101 Firefox/132.0" version="24.8.6">
  <diagram name="Page-1" id="h3QMktJUDQHHH6E6HLhU">
    <mxGraphModel dx="1185" dy="632" grid="1" gridSize="10" guides="1" tooltips="1" connect="1" arrows="1" fold="1" page="1" pageScale="1" pageWidth="850" pageHeight="1100" math="0" shadow="0">
      <root>
        <mxCell id="0" />
        <mxCell id="1" parent="0" />
        <mxCell id="xzMERXrAKy0U1Wa6-c2J-3" value="" style="edgeStyle=orthogonalEdgeStyle;rounded=0;orthogonalLoop=1;jettySize=auto;html=1;" edge="1" parent="1" source="xzMERXrAKy0U1Wa6-c2J-1" target="xzMERXrAKy0U1Wa6-c2J-2">
          <mxGeometry relative="1" as="geometry" />
        </mxCell>
        <mxCell id="xzMERXrAKy0U1Wa6-c2J-1" value="&lt;div&gt;Import Turtle,&lt;/div&gt;&lt;div&gt;&amp;nbsp;Screen, Random&lt;br&gt;&lt;/div&gt;" style="rounded=1;whiteSpace=wrap;html=1;" vertex="1" parent="1">
          <mxGeometry x="365" y="40" width="120" height="60" as="geometry" />
        </mxCell>
        <mxCell id="xzMERXrAKy0U1Wa6-c2J-5" value="" style="edgeStyle=orthogonalEdgeStyle;rounded=0;orthogonalLoop=1;jettySize=auto;html=1;" edge="1" parent="1" source="xzMERXrAKy0U1Wa6-c2J-2" target="xzMERXrAKy0U1Wa6-c2J-4">
          <mxGeometry relative="1" as="geometry" />
        </mxCell>
        <mxCell id="xzMERXrAKy0U1Wa6-c2J-7" value="" style="edgeStyle=orthogonalEdgeStyle;rounded=0;orthogonalLoop=1;jettySize=auto;html=1;" edge="1" parent="1" source="xzMERXrAKy0U1Wa6-c2J-2" target="xzMERXrAKy0U1Wa6-c2J-6">
          <mxGeometry relative="1" as="geometry" />
        </mxCell>
        <mxCell id="xzMERXrAKy0U1Wa6-c2J-13" value="" style="edgeStyle=orthogonalEdgeStyle;rounded=0;orthogonalLoop=1;jettySize=auto;html=1;" edge="1" parent="1" source="xzMERXrAKy0U1Wa6-c2J-2" target="xzMERXrAKy0U1Wa6-c2J-12">
          <mxGeometry relative="1" as="geometry" />
        </mxCell>
        <mxCell id="xzMERXrAKy0U1Wa6-c2J-2" value="Create screen object" style="whiteSpace=wrap;html=1;rounded=1;" vertex="1" parent="1">
          <mxGeometry x="365" y="180" width="120" height="60" as="geometry" />
        </mxCell>
        <mxCell id="xzMERXrAKy0U1Wa6-c2J-4" value="Set screen color mode to 255 RGB" style="ellipse;whiteSpace=wrap;html=1;rounded=1;" vertex="1" parent="1">
          <mxGeometry x="585" y="170" width="80" height="80" as="geometry" />
        </mxCell>
        <mxCell id="xzMERXrAKy0U1Wa6-c2J-9" value="" style="edgeStyle=orthogonalEdgeStyle;rounded=0;orthogonalLoop=1;jettySize=auto;html=1;" edge="1" parent="1" source="xzMERXrAKy0U1Wa6-c2J-6" target="xzMERXrAKy0U1Wa6-c2J-8">
          <mxGeometry relative="1" as="geometry" />
        </mxCell>
        <mxCell id="xzMERXrAKy0U1Wa6-c2J-11" value="" style="edgeStyle=orthogonalEdgeStyle;rounded=0;orthogonalLoop=1;jettySize=auto;html=1;" edge="1" parent="1" source="xzMERXrAKy0U1Wa6-c2J-6" target="xzMERXrAKy0U1Wa6-c2J-10">
          <mxGeometry relative="1" as="geometry" />
        </mxCell>
        <mxCell id="xzMERXrAKy0U1Wa6-c2J-15" value="" style="edgeStyle=orthogonalEdgeStyle;rounded=0;orthogonalLoop=1;jettySize=auto;html=1;" edge="1" parent="1" source="xzMERXrAKy0U1Wa6-c2J-6" target="xzMERXrAKy0U1Wa6-c2J-14">
          <mxGeometry relative="1" as="geometry" />
        </mxCell>
        <mxCell id="xzMERXrAKy0U1Wa6-c2J-6" value="Create turtle object" style="whiteSpace=wrap;html=1;rounded=1;" vertex="1" parent="1">
          <mxGeometry x="365" y="320" width="120" height="60" as="geometry" />
        </mxCell>
        <mxCell id="xzMERXrAKy0U1Wa6-c2J-8" value="Set shape to turtle" style="ellipse;whiteSpace=wrap;html=1;rounded=1;" vertex="1" parent="1">
          <mxGeometry x="585" y="310" width="80" height="80" as="geometry" />
        </mxCell>
        <mxCell id="xzMERXrAKy0U1Wa6-c2J-10" value="Set color to orange" style="ellipse;whiteSpace=wrap;html=1;rounded=1;" vertex="1" parent="1">
          <mxGeometry x="185" y="310" width="80" height="80" as="geometry" />
        </mxCell>
        <mxCell id="xzMERXrAKy0U1Wa6-c2J-12" value="Set turtle name" style="ellipse;whiteSpace=wrap;html=1;rounded=1;" vertex="1" parent="1">
          <mxGeometry x="185" y="170" width="80" height="80" as="geometry" />
        </mxCell>
        <mxCell id="xzMERXrAKy0U1Wa6-c2J-17" value="" style="edgeStyle=orthogonalEdgeStyle;rounded=0;orthogonalLoop=1;jettySize=auto;html=1;" edge="1" parent="1" source="xzMERXrAKy0U1Wa6-c2J-14" target="xzMERXrAKy0U1Wa6-c2J-16">
          <mxGeometry relative="1" as="geometry" />
        </mxCell>
        <mxCell id="xzMERXrAKy0U1Wa6-c2J-21" value="" style="edgeStyle=orthogonalEdgeStyle;rounded=0;orthogonalLoop=1;jettySize=auto;html=1;" edge="1" parent="1" source="xzMERXrAKy0U1Wa6-c2J-14" target="xzMERXrAKy0U1Wa6-c2J-20">
          <mxGeometry relative="1" as="geometry" />
        </mxCell>
        <mxCell id="xzMERXrAKy0U1Wa6-c2J-25" value="" style="edgeStyle=orthogonalEdgeStyle;rounded=0;orthogonalLoop=1;jettySize=auto;html=1;" edge="1" parent="1" source="xzMERXrAKy0U1Wa6-c2J-14" target="xzMERXrAKy0U1Wa6-c2J-24">
          <mxGeometry relative="1" as="geometry" />
        </mxCell>
        <mxCell id="xzMERXrAKy0U1Wa6-c2J-14" value="&lt;div&gt;Define new&lt;/div&gt;&lt;div&gt;&amp;nbsp;functions&lt;/div&gt;" style="shape=parallelogram;perimeter=parallelogramPerimeter;whiteSpace=wrap;html=1;fixedSize=1;rounded=1;" vertex="1" parent="1">
          <mxGeometry x="365" y="460" width="120" height="60" as="geometry" />
        </mxCell>
        <mxCell id="xzMERXrAKy0U1Wa6-c2J-19" value="" style="edgeStyle=orthogonalEdgeStyle;rounded=0;orthogonalLoop=1;jettySize=auto;html=1;" edge="1" parent="1" source="xzMERXrAKy0U1Wa6-c2J-16" target="xzMERXrAKy0U1Wa6-c2J-18">
          <mxGeometry relative="1" as="geometry" />
        </mxCell>
        <mxCell id="xzMERXrAKy0U1Wa6-c2J-16" value="&lt;div&gt;Define Left&lt;/div&gt;&lt;div&gt;Function&lt;/div&gt;" style="shape=hexagon;perimeter=hexagonPerimeter2;whiteSpace=wrap;html=1;fixedSize=1;rounded=1;" vertex="1" parent="1">
          <mxGeometry x="165" y="450" width="120" height="80" as="geometry" />
        </mxCell>
        <mxCell id="xzMERXrAKy0U1Wa6-c2J-18" value="Define Backwards Function" style="shape=hexagon;perimeter=hexagonPerimeter2;whiteSpace=wrap;html=1;fixedSize=1;rounded=1;" vertex="1" parent="1">
          <mxGeometry y="450" width="120" height="80" as="geometry" />
        </mxCell>
        <mxCell id="xzMERXrAKy0U1Wa6-c2J-23" value="" style="edgeStyle=orthogonalEdgeStyle;rounded=0;orthogonalLoop=1;jettySize=auto;html=1;" edge="1" parent="1" source="xzMERXrAKy0U1Wa6-c2J-20" target="xzMERXrAKy0U1Wa6-c2J-22">
          <mxGeometry relative="1" as="geometry" />
        </mxCell>
        <mxCell id="xzMERXrAKy0U1Wa6-c2J-20" value="&lt;div&gt;Define Right&lt;/div&gt;&lt;div&gt;Function&lt;/div&gt;" style="shape=hexagon;perimeter=hexagonPerimeter2;whiteSpace=wrap;html=1;fixedSize=1;rounded=1;" vertex="1" parent="1">
          <mxGeometry x="565" y="450" width="120" height="80" as="geometry" />
        </mxCell>
        <mxCell id="xzMERXrAKy0U1Wa6-c2J-22" value="Define Forward Function" style="shape=hexagon;perimeter=hexagonPerimeter2;whiteSpace=wrap;html=1;fixedSize=1;rounded=1;" vertex="1" parent="1">
          <mxGeometry x="730" y="450" width="120" height="80" as="geometry" />
        </mxCell>
        <mxCell id="xzMERXrAKy0U1Wa6-c2J-27" value="" style="edgeStyle=orthogonalEdgeStyle;rounded=0;orthogonalLoop=1;jettySize=auto;html=1;" edge="1" parent="1" source="xzMERXrAKy0U1Wa6-c2J-24" target="xzMERXrAKy0U1Wa6-c2J-26">
          <mxGeometry relative="1" as="geometry" />
        </mxCell>
        <mxCell id="xzMERXrAKy0U1Wa6-c2J-24" value="Define Reset Function" style="shape=hexagon;perimeter=hexagonPerimeter2;whiteSpace=wrap;html=1;fixedSize=1;rounded=1;" vertex="1" parent="1">
          <mxGeometry x="365" y="590" width="120" height="80" as="geometry" />
        </mxCell>
        <mxCell id="xzMERXrAKy0U1Wa6-c2J-29" value="" style="edgeStyle=orthogonalEdgeStyle;rounded=0;orthogonalLoop=1;jettySize=auto;html=1;" edge="1" parent="1" source="xzMERXrAKy0U1Wa6-c2J-26" target="xzMERXrAKy0U1Wa6-c2J-28">
          <mxGeometry relative="1" as="geometry" />
        </mxCell>
        <mxCell id="xzMERXrAKy0U1Wa6-c2J-33" value="" style="edgeStyle=orthogonalEdgeStyle;rounded=0;orthogonalLoop=1;jettySize=auto;html=1;" edge="1" parent="1" source="xzMERXrAKy0U1Wa6-c2J-26" target="xzMERXrAKy0U1Wa6-c2J-32">
          <mxGeometry relative="1" as="geometry" />
        </mxCell>
        <mxCell id="xzMERXrAKy0U1Wa6-c2J-37" value="" style="edgeStyle=orthogonalEdgeStyle;rounded=0;orthogonalLoop=1;jettySize=auto;html=1;" edge="1" parent="1" source="xzMERXrAKy0U1Wa6-c2J-26" target="xzMERXrAKy0U1Wa6-c2J-36">
          <mxGeometry relative="1" as="geometry" />
        </mxCell>
        <mxCell id="xzMERXrAKy0U1Wa6-c2J-26" value="Add screen.listen() function" style="whiteSpace=wrap;html=1;rounded=1;" vertex="1" parent="1">
          <mxGeometry x="365" y="760" width="120" height="60" as="geometry" />
        </mxCell>
        <mxCell id="xzMERXrAKy0U1Wa6-c2J-31" value="" style="edgeStyle=orthogonalEdgeStyle;rounded=0;orthogonalLoop=1;jettySize=auto;html=1;" edge="1" parent="1" source="xzMERXrAKy0U1Wa6-c2J-28" target="xzMERXrAKy0U1Wa6-c2J-30">
          <mxGeometry relative="1" as="geometry" />
        </mxCell>
        <mxCell id="xzMERXrAKy0U1Wa6-c2J-28" value="D Keybind" style="shape=hexagon;perimeter=hexagonPerimeter2;whiteSpace=wrap;html=1;fixedSize=1;rounded=1;" vertex="1" parent="1">
          <mxGeometry x="565" y="750" width="120" height="80" as="geometry" />
        </mxCell>
        <mxCell id="xzMERXrAKy0U1Wa6-c2J-30" value="W Keybind" style="shape=hexagon;perimeter=hexagonPerimeter2;whiteSpace=wrap;html=1;fixedSize=1;rounded=1;" vertex="1" parent="1">
          <mxGeometry x="730" y="750" width="120" height="80" as="geometry" />
        </mxCell>
        <mxCell id="xzMERXrAKy0U1Wa6-c2J-35" value="" style="edgeStyle=orthogonalEdgeStyle;rounded=0;orthogonalLoop=1;jettySize=auto;html=1;" edge="1" parent="1" source="xzMERXrAKy0U1Wa6-c2J-32" target="xzMERXrAKy0U1Wa6-c2J-34">
          <mxGeometry relative="1" as="geometry" />
        </mxCell>
        <mxCell id="xzMERXrAKy0U1Wa6-c2J-32" value="A Keybind" style="shape=hexagon;perimeter=hexagonPerimeter2;whiteSpace=wrap;html=1;fixedSize=1;rounded=1;" vertex="1" parent="1">
          <mxGeometry x="165" y="750" width="120" height="80" as="geometry" />
        </mxCell>
        <mxCell id="xzMERXrAKy0U1Wa6-c2J-34" value="S Keybind" style="shape=hexagon;perimeter=hexagonPerimeter2;whiteSpace=wrap;html=1;fixedSize=1;rounded=1;" vertex="1" parent="1">
          <mxGeometry y="750" width="120" height="80" as="geometry" />
        </mxCell>
        <mxCell id="xzMERXrAKy0U1Wa6-c2J-39" value="" style="edgeStyle=orthogonalEdgeStyle;rounded=0;orthogonalLoop=1;jettySize=auto;html=1;" edge="1" parent="1" source="xzMERXrAKy0U1Wa6-c2J-36" target="xzMERXrAKy0U1Wa6-c2J-38">
          <mxGeometry relative="1" as="geometry" />
        </mxCell>
        <mxCell id="xzMERXrAKy0U1Wa6-c2J-36" value="C Keybind" style="shape=hexagon;perimeter=hexagonPerimeter2;whiteSpace=wrap;html=1;fixedSize=1;rounded=1;" vertex="1" parent="1">
          <mxGeometry x="365" y="890" width="120" height="80" as="geometry" />
        </mxCell>
        <mxCell id="xzMERXrAKy0U1Wa6-c2J-38" value="Screen.exitonclick" style="whiteSpace=wrap;html=1;rounded=1;" vertex="1" parent="1">
          <mxGeometry x="365" y="1060" width="120" height="60" as="geometry" />
        </mxCell>
      </root>
    </mxGraphModel>
  </diagram>
</mxfile>
